<svg xmlns="http://www.w3.org/2000/svg">
<symbol id="logo" viewBox="0 0 534 86">
<path d="M15.11 8.22H9.69V23.9h-4.3V8.22h-5.4V4.7h15.12zM30.3 23.9h-4.18v-7.8q0-3-2.17-3-1.12 0-1.8.84-.7.84-.7 2.14v7.81h-4.19V3.61h4.2v8.61h.05q1.54-2.36 4.18-2.36 4.61 0 4.61 5.62zm15.5-5.65h-8.86q.21 2.98 3.73 2.98 2.24 0 3.94-1.07v3.05q-1.89 1.02-4.9 1.02-3.29 0-5.1-1.83-1.82-1.85-1.82-5.14 0-3.41 1.96-5.4t4.83-2q2.97 0 4.59 1.78 1.63 1.78 1.63 4.83zm-3.89-2.6q0-2.94-2.36-2.94-1 0-1.75.84-.73.84-.89 2.1z"/>
<path d="M72.33 29.11L57.08 83.09h-7.42l-11.1-39.45q-.72-2.52-.87-5.5h-.15q-.22 2.8-.98 5.43L25.38 83.09h-7.34L2.23 29.11h6.96l11.49 41.4q.71 2.6.9 5.43h.19q.19-2 1.16-5.42L34.87 29.1h6.06l11.44 41.71q.6 2.15.9 5.05h.16q.15-1.96 1.01-5.2L65.47 29.1zM92.58 84q-8.55 0-13.67-5.38-5.08-5.42-5.08-14.35 0-9.7 5.3-15.17 5.31-5.46 14.35-5.46 8.62 0 13.44 5.31 4.85 5.31 4.85 14.72 0 9.22-5.23 14.8Q101.34 84 92.58 84zm.45-35.16q-5.95 0-9.41 4.07-3.47 4.02-3.47 11.14 0 6.85 3.5 10.8 3.5 3.96 9.38 3.96 5.98 0 9.18-3.88 3.24-3.88 3.24-11.03 0-7.23-3.24-11.15-3.2-3.91-9.18-3.91zm48.71 1.95q-1.62-1.24-4.67-1.24-3.96 0-6.63 3.72-2.63 3.73-2.63 10.17v19.65h-6.18V44.54h6.18v7.94h.15q1.31-4.06 4.02-6.32 2.72-2.3 6.07-2.3 2.4 0 3.68.53zm39.61 32.3h-6.18v-6.55h-.15q-4.3 7.45-13.25 7.45-7.27 0-11.63-5.15-4.33-5.2-4.33-14.12 0-9.56 4.82-15.32t12.83-5.76q7.95 0 11.56 6.25h.15V26.02h6.18zm-6.18-17.43v-5.68q0-4.67-3.09-7.91-3.08-3.24-7.83-3.24-5.64 0-8.88 4.14-3.24 4.14-3.24 11.45 0 6.66 3.09 10.54 3.12 3.84 8.36 3.84 5.15 0 8.35-3.73 3.24-3.73 3.24-9.41z"/>
<path d="M189.93 81.55V63.74q4.84 4.06 10.52 6.12 5.67 2 11.46 2 3.4 0 5.9-.6 2.56-.62 4.23-1.68 1.73-1.11 2.56-2.56.84-1.5.84-3.23 0-2.33-1.34-4.17-1.34-1.84-3.67-3.4-2.29-1.55-5.46-3t-6.84-2.95q-9.36-3.9-13.98-9.52-4.56-5.62-4.56-13.58 0-6.23 2.5-10.69 2.51-4.5 6.8-7.4 4.34-2.9 10.02-4.23 5.67-1.4 12.02-1.4 6.23 0 11.02.79 4.84.72 8.9 2.28v16.64q-2-1.39-4.4-2.45-2.33-1.05-4.83-1.72-2.51-.73-5.01-1.06-2.45-.33-4.68-.33-3.06 0-5.57.6-2.5.57-4.23 1.62t-2.67 2.56q-.94 1.45-.94 3.29 0 2 1.05 3.62 1.06 1.55 3 3 1.96 1.4 4.74 2.78 2.78 1.34 6.29 2.79 4.79 2 8.57 4.28 3.84 2.23 6.57 5.07 2.73 2.84 4.17 6.51 1.45 3.62 1.45 8.46 0 6.68-2.56 11.24-2.5 4.51-6.85 7.35-4.34 2.78-10.13 4Q219.1 86 212.7 86q-6.57 0-12.52-1.11-5.9-1.11-10.25-3.34zm117.05-20.43H269.8q.89 12.41 15.64 12.41 9.4 0 16.53-4.45v12.69Q294.07 86 281.43 86q-13.8 0-21.43-7.63-7.63-7.68-7.63-21.37 0-14.2 8.24-22.49t20.26-8.29q12.47 0 19.26 7.4 6.85 7.4 6.85 20.1zm-16.31-10.8q0-12.24-9.91-12.24-4.23 0-7.35 3.5-3.06 3.51-3.73 8.74zm74.19 34.29h-16.64v-8.18H348Q342.27 86 331.02 86q-8.3 0-13.08-4.67-4.73-4.74-4.73-12.58 0-16.59 19.65-19.15l15.47-2.06q0-9.35-10.13-9.35-10.18 0-19.37 6.07V31q3.68-1.9 10.02-3.34 6.4-1.45 11.63-1.45 24.38 0 24.38 24.33zm-16.53-23.15V57.6l-10.35 1.34q-8.57 1.11-8.57 7.74 0 3 2.06 4.95 2.11 1.9 5.68 1.9 4.95 0 8.07-3.4 3.11-3.45 3.11-8.69zm67.74-17.98q-3.17-1.73-7.4-1.73-5.73 0-8.96 4.23-3.23 4.18-3.23 11.41v27.22h-17.59v-57h17.59V38.2h.22q4.18-11.58 15.03-11.58 2.78 0 4.34.67zm50.99 39.07Q461.1 86 449.86 86q-13.14 0-21.26-7.96-8.13-7.96-8.13-20.54 0-14.52 8.68-22.87 8.74-8.4 23.32-8.4 10.08 0 14.59 2.66v14.92q-5.51-4.12-12.3-4.12-7.57 0-12.03 4.45-4.4 4.4-4.4 12.2 0 7.56 4.24 11.9 4.23 4.29 11.63 4.29 6.57 0 12.86-4.12zm66.29 2.06H515.8v-32.4q0-12.52-9.13-12.52-4.67 0-7.57 3.5-2.9 3.51-2.9 8.91v32.5h-17.58V.24h17.59v35.84h.22q6.46-9.85 17.54-9.85 19.37 0 19.37 23.38z"/>
</symbol>
<symbol id="download" viewBox='0 0 32 32'><path d="M24 11.2h-4.8V1.6h-6.4v9.6H8l8 8 8-8zm7 10.5l-3.3-3.4c-.4-.4-1-.7-1.6-.7h-2.9l5 4.8h-5.7c-.2 0-.3 0-.4.2l-1.3 3h-9.6l-1.3-3-.4-.2H4l4.9-4.8H5.9c-.6 0-1.2.3-1.6.7-.7.6-3 3-3.2 3.4-.8.8-1.3 1.4-1 2.3l.8 4.9c.3.8 1.2 1.5 2 1.5h26.2c.8 0 1.7-.7 2-1.5l.9-5c.2-.8-.3-1.4-1-2.2z"/></symbol>
<symbol id="cog" viewBox='0 0 32 32'><path d="M26 19h-1.3c-.2.8-.6 1.6-1 2.3l1.3 1.2c.8.8.8 2 0 2.8l-.7.7a2 2 0 0 1-2.9 0l-1.2-1.2-2.2 1V27a2 2 0 0 1-2 2h-1a2 2 0 0 1-2-2v-1.3c-.8-.2-1.5-.5-2.2-.9L9.6 26a2 2 0 0 1-2.9 0l-.7-.7a2 2 0 0 1 0-2.8l1.2-1.2-.9-2.2H5a2 2 0 0 1-2-2v-1c0-1.1.9-2 2-2h1.3c.2-.8.5-1.5.9-2.2L6 10.7a2 2 0 0 1 0-2.8l.7-.7a2 2 0 0 1 2.9 0l1.1 1.1 2.3-1V6c0-1.1.9-2 2-2h1a2 2 0 0 1 2 2v1.4c.8.2 1.6.5 2.3.9l1.1-1.1a2 2 0 0 1 2.9 0l.7.7c.8.7.8 2 0 2.8l-1.2 1.2c.4.7.7 1.4.9 2.2H26a2 2 0 0 1 2 2v1a2 2 0 0 1-2 2zm-10.5-8a5.5 5.5 0 1 0 0 11.1 5.5 5.5 0 0 0 0-11zm0 8a2.5 2.5 0 1 1 0-5 2.5 2.5 0 0 1 0 5z"/></symbol>
<symbol id="switch" viewBox='0 0 20 18'><path d="M13 2H7a7 7 0 1 0 0 14h6a7 7 0 1 0 0-14zm0 12H7A5 5 0 0 1 7 4h6a5 5 0 0 1 0 10z"/><path d="M10 9a3 3 0 1 1-6 0 3 3 0 0 1 6 0z"/></symbol>
<symbol id="animals" viewBox='0 0 26 28'><path d="M12 7c0 2-1 4-3 4S5 8 5 6s1-4 3-4c3 0 4 3 4 5zm-5 8c0 1-1 3-3 3s-4-3-4-5 1-3 3-3 4 3 4 5zm6 0c4 0 9 5 9 9 0 2-2 2-3 2l-6-1-6 1c-2 0-3-1-3-2 0-4 5-9 9-9zm4-4c-2 0-3-2-3-4s1-5 4-5c2 0 3 2 3 4s-2 5-4 5zm6-1c2 0 3 1 3 3s-2 5-4 5-3-2-3-3c0-2 2-5 4-5z"/></symbol>
<symbol id="tv" viewBox='0 0 32 32'><path d="M30.7 9c-2.8-.4-5.8-.7-8.9-.8L27 3l-2-2-7 7h-2L8 0 6 2l6 6c-3.7.2-7.3.5-10.7 1a44.6 44.6 0 0 0 0 22 103.9 103.9 0 0 0 29.4 0 44.6 44.6 0 0 0 0-22zM27 27.3a87.5 87.5 0 0 1-22 0 26.6 26.6 0 0 1 0-14.6 87.5 87.5 0 0 1 22 0 26.6 26.6 0 0 1 0 14.6z"/></symbol>
<symbol id="food" viewBox='0 0 32 32'><path d="M7 0C3.7 0 1 3.1 1 7c0 3.3 2 6 4.6 6.8L4.6 30c0 1.1.8 2 1.9 2h1c1.1 0 2-.9 1.9-2l-1-16.2C11 13.1 13 10.3 13 7c0-3.9-2.7-7-6-7zm20.2 0l-1.7 10h-1.3l-.8-10h-.8l-.8 10h-1.3L18.8 0H18v13c0 .6.4 1 1 1h2.6l-1 16c0 1.1.8 2 1.9 2h1c1.1 0 2-.9 1.9-2l-1-16H27c.6 0 1-.4 1-1V0h-.8z"/></symbol>
<symbol id="general" viewBox='0 0 27 32'><path d="M15.7 21.4v2.9c0 .3-.2.6-.6.6h-2.8a.6.6 0 0 1-.6-.6v-2.9c0-.3.3-.5.6-.5H15c.4 0 .6.2.6.5zm4.6-8.8c0 2.5-1.8 3.5-3 4.2-1 .6-1.6 1-1.6 1.5v.6c0 .3-.2.5-.6.5h-2.8a.6.6 0 0 1-.6-.5v-1.3c0-2.2 1.6-2.9 2.9-3.4 1-.5 1.7-.9 1.7-1.7 0-1-1.3-1.8-2.5-1.8-.6 0-1.3.2-1.7.5a7 7 0 0 0-1.4 1.5l-.5.2-.3-.1-2-1.5a.6.6 0 0 1 0-.7A7 7 0 0 1 14 7c2.9 0 6.2 2.4 6.2 5.5zm-6.6-8a11.4 11.4 0 1 0 0 22.8 11.4 11.4 0 0 0 0-22.8zM27.4 16A13.7 13.7 0 1 1 13.7 2.3c7.6 0 13.7 6.1 13.7 13.7z"/></symbol>
<symbol id="map" viewBox='0 0 32 32'><path d="M31 5v1l-2 3H3L2 8V3l1-1h11V1l1-1h2l1 1v1h9l2 1zM14 22h4v9l-1 1h-2l-1-1v-9zm15-8l1 1v4l-1 2H5l-2-1-2-2v-1l2-3h11v-4h4v4h11z"/></symbol>
<symbol id="movie" viewBox='0 0 32 32'><path d="M27 17l-5-2v-4l5-2c.6 0 1 .5 1 1v6c0 .6-.4 1-1 1zm-9.5-7a4.5 4.5 0 1 1 0-9 4.5 4.5 0 0 1 0 9zm-9 0a4.5 4.5 0 1 1 0-9 4.5 4.5 0 0 1 0 9zM21 10v9h-5.6c0 .9-.4 1.6-1 2h.6l4 9h-1l-1.3-3H14v5h-1v-5h-2.7L9 30H8l4-9h.4a3 3 0 0 1-1-2H5v-9h16zm-8 11.3L10.7 26H13v-4.7zm1 0V26h2.2l-2-4.8H14z"/></symbol>
<symbol id="lab" viewBox='0 0 32 32'><path d="M30 25L20 9V2h1l1-1-1-1H11l-1 1 1 1h1v7L2 25c-2 4 0 7 4 7h20c4 0 6-3 4-7zM8 20l6-11V2h4v7l6 11H8z"/></symbol>
<symbol id="quote" viewBox='0 0 32 32'><path d="M11.4 16c0 1.3-1 2.3-2.3 2.3S7 17.3 7 16s1-2.3 2.2-2.3 2.3 1 2.3 2.3zm6.9 0c0 1.3-1 2.3-2.3 2.3s-2.3-1-2.3-2.3 1-2.3 2.3-2.3 2.3 1 2.3 2.3zm6.8 0c0 1.3-1 2.3-2.2 2.3s-2.3-1-2.3-2.3 1-2.3 2.3-2.3 2.2 1 2.2 2.3zM16 6.9C8.6 6.9 2.3 11 2.3 16c0 2.7 1.8 5.2 4.9 7l1.5.8-.5 1.8c-.3 1.2-.8 2.2-1.2 3 1.8-.7 3.4-1.7 4.9-3l.8-.7 1 .1 2.3.1c7.4 0 13.7-4.1 13.7-9.1S23.4 6.9 16 6.9zM32 16c0 6.3-7.2 11.4-16 11.4l-2.6-.1A19.6 19.6 0 0 1 3.2 32H3c-.4 0-.7-.3-.8-.7 0-.4.2-.7.5-1C3.9 29 5.2 27.9 6 24.9c-3.6-2-6-5.3-6-8.9C0 9.7 7.2 4.6 16 4.6S32 9.7 32 16z"/></symbol>
<symbol id="kids" viewBox='0 0 32 32'><path d="M10 18.7h12a6.5 6.5 0 0 1-12 0zm6 6.6c4.3 0 7.8-2.8 9-6.7h.3c1.5 0 2.7-1.2 2.7-2.6s-1.2-2.7-2.7-2.7H25c-1-3.8-4.6-6.6-8.9-6.6s-7.8 2.8-9 6.7h-.3C5.2 13.3 4 14.5 4 16s1.2 2.7 2.7 2.7H7a9.3 9.3 0 0 0 8.9 6.6zM30.6 17c-.4 2-1.8 3.7-3.7 4.2C25 24.8 20.9 28 16 28a12 12 0 0 1-10.8-6.9c-2-.5-3.5-2.2-3.8-4.2v-1.8c.3-2 1.8-3.7 3.8-4.2A11.9 11.9 0 0 1 16 4c5 0 9 3 10.8 6.9 2 .5 3.5 2.2 3.8 4.2V17zM11 14c0-1 .8-1.7 1.7-1.7s1.6.8 1.6 1.7-.7 1.7-1.6 1.7S11 14.9 11 14zm6.7 0c0-1 .7-1.7 1.6-1.7s1.7.8 1.7 1.7-.7 1.7-1.7 1.7-1.6-.8-1.6-1.7z"/></symbol>
<symbol id="laugh" viewBox='0 0 32 32'><path d="M16 .6a15.4 15.4 0 1 0 0 30.8A15.4 15.4 0 0 0 16 .6zm0 27.6a12.2 12.2 0 1 1 0-24.4 12.2 12.2 0 0 1 0 24.4zm-4-12.6c1.3 0 2.4-1.3 2.4-2.8S13.4 10 12 10s-2.4 1.3-2.4 2.8 1 2.8 2.4 2.8zm8 0c1.3 0 2.4-1.3 2.4-2.8S21.4 10 20 10s-2.4 1.3-2.4 2.8 1 2.8 2.4 2.8zm3 2.5c-.6-.3-1.4 0-1.7.6 0 0-1.4 2.5-5.3 2.5-4 0-5.3-2.4-5.3-2.5a1.2 1.2 0 0 0-2.2 1c.1.2 2 3.9 7.5 3.9s7.4-3.7 7.5-3.9c.3-.6 0-1.3-.6-1.6z"/></symbol>
<symbol id="music" viewBox='0 0 32 32'><path d="M9 18H7v14h2c.6 0 1-.5 1-1V19c0-.6-.5-1-1-1zm14 0a1 1 0 0 0-1 1v12c0 .6.5 1 1 1h2V18h-2z"/><path d="M32 16a16 16 0 1 0-31 5.5A7 7 0 0 0 6 32V18a7 7 0 0 0-2.7 1 13 13 0 1 1 25.5 0 7 7 0 0 0-2.8-1v14a7 7 0 0 0 5-10.5 16 16 0 0 0 1-5.5z"/></symbol>
<symbol id="celeb" viewBox='0 0 32 32'><path d="M11.2 12.8a6.4 6.4 0 1 1 0-12.8 6.4 6.4 0 1 1 0 12.8zm0 1.6c3.4 0 6.7.6 9.8 1.7l-1.8 9.5h-2L16 32H6.4l-1.2-6.4h-2l-1.8-9.5c3-1 6.3-1.7 9.8-1.7zm13.3.3c2.1.3 4.1.7 6 1.4l-1.7 9.5h-2L25.6 32h-6.3l.6-3.2h2l2.6-14.1zM20.8 0a6.4 6.4 0 1 1-2.2 12.4 9.5 9.5 0 0 0 0-12C19.5.2 20 0 20.9 0z"/></symbol>
<symbol id="tv2" viewBox='0 0 32 32'><path d="M12 13.3l9.3 5.4L12 24V13.3zm16 13.4v-16H4v16h24zM28 8c1.4 0 2.7 1.2 2.7 2.7v16c0 1.4-1.3 2.6-2.7 2.6H4a2.7 2.7 0 0 1-2.7-2.6v-16C1.3 9.2 2.6 8 4 8h10.1L9.8 3.6l.9-1L16 8l5.3-5.3 1 1L17.9 8H28z"/></symbol>
<symbol id="educational" viewBox='0 0 41 32'><path d="M31.7 15l.3 5.6c.1 2.5-5.1 4.5-11.4 4.5S9 23.1 9 20.6l.4-5.7 10.2 3.3h1.8zM41 9c0 .3-.1.5-.4.6l-20 6.3h-.2L8.7 12.3c-1 .8-1.7 2.8-1.8 5.2.7.4 1.1 1 1.1 2 0 .7-.4 1.4-1 1.8l1 7.8-.1.4-.5.2H4c-.2 0-.3 0-.4-.2l-.2-.4 1-7.8a2.3 2.3 0 0 1 .2-3.9c0-2 .6-4.3 1.7-5.8l-6-1.9c-.1 0-.3-.3-.3-.6s.2-.4.4-.5l20-6.3h.3l20 6.3c.3 0 .4.3.4.5z"/></symbol>
<symbol id="book" viewBox='0 0 30 32'><path d="M29.3 8.5c.4.7.5 1.5.3 2.3l-5 16.2c-.4 1.5-2 2.7-3.5 2.7H4.6a5 5 0 0 1-4.4-3.3 3 3 0 0 1 0-2.3L.3 23l-.1-.7c0-.5.4-.8.7-1.2a13 13 0 0 0 1.4-3.3v-1c0-.4.4-.6.6-1 .5-.8 1-2.4 1.2-3.2 0-.4-.2-.8 0-1 0-.5.5-.7.7-1C5.2 10 6 8.3 6.1 7.3c0-.3-.2-.6-.1-.9 0-.3.5-.7.8-1.1.7-1.1.9-3.5 3.1-3v.1l1-.1h13.5c.8 0 1.6.4 2 1 .5.6.6 1.5.4 2.3l-5 16.2c-.8 2.7-1.2 3.3-3.5 3.3H2.8a1 1 0 0 0-.7.3c-.1.2-.2.4 0 .8.3 1 1.6 1.2 2.6 1.2H21c.7 0 1.5-.3 1.7-1L28 8.8l.1-1c.4.1.8.4 1 .7zm-19 0c-.1.4 0 .6.4.6h10.8c.3 0 .7-.2.8-.5l.3-1.2c.1-.3 0-.5-.4-.5H11.4c-.3 0-.6.2-.8.5zm-1.5 4.6c-.1.4 0 .6.4.6H20c.3 0 .7-.2.8-.6l.4-1.1c0-.3-.1-.6-.4-.6H9.9c-.3 0-.6.3-.7.6z"/></symbol>
<symbol id="bible" viewBox='0 0 32 32'><path d="M15 25.9V6.3S12.3 4 8.5 4 2 6 2 6v19.9s2.7-2 6.5-2 6.5 2 6.5 2zm14 0V6.3S26.3 4 22.5 4 16 6 16 6v19.9s2.7-2 6.5-2 6.5 2 6.5 2zM31 8h-1v19H18v1h-5v-1H1V8H0v20h12v1h7v-1h12V8z"/></symbol>
<symbol id="earth" viewBox='0 0 32 32'><path d="M16 0a16 16 0 1 0 0 32 16 16 0 0 0 0-32zm0 30c-2 0-3.8-.4-5.5-1.1l7.2-8.2c.2-.2.3-.5.3-.7v-3c0-.6-.4-1-1-1-3.5 0-7.3-3.7-7.3-3.7A1 1 0 0 0 9 12H5a1 1 0 0 0-1 1v6c0 .4.2.7.6.9L8 21.6v5.9A14 14 0 0 1 3.3 10H7c.3 0 .5-.1.7-.3l4-4c.2-.2.3-.4.3-.7V2.6a14 14 0 0 1 10.1.8l-.3.4a6 6 0 0 0 0 8.4 6 6 0 0 0 4.5 1.8 23.5 23.5 0 0 1-.3 11.8A14 14 0 0 1 16 30z"/></symbol>
<symbol id="calendar" viewBox='0 0 32 32'><path d="M29 3h-4V1a1 1 0 1 0-2 0v2h-6V1a1 1 0 1 0-2 0v2H9V1a1 1 0 1 0-2 0v2H3C1 3 0 4 0 6v23c0 2 1 3 3 3h26c2 0 3-1 3-3V6c0-2-1-3-3-3zm1 26l-1 1H3l-1-1V6l1-1h4v2a1 1 0 1 0 2 0V5h6v2a1 1 0 1 0 2 0V5h6v2a1 1 0 1 0 2 0V5h4l1 1v23zM7 12h4v3H7zm0 5h4v3H7zm0 5h4v3H7zm7 0h4v3h-4zm0-5h4v3h-4zm0-5h4v3h-4zm7 10h4v3h-4zm0-5h4v3h-4zm0-5h4v3h-4z"/></symbol>
<symbol id="castle" viewBox='0 0 24 24'><path d="M24 24H0v-2h1v-7c0-.6-.4-1-1-1V9h2v2h2V9h2v3h1V6h2v2h2V0l5 2-4 2v2h1v2h2V6h2v6h1V9h2v2h2V9h2v5a1 1 0 0 0-1 1v7h1v2zm-11-1v-4a1 1 0 0 0-2 0v4h2zm2-13H9v4H4v-1H2.2c.5.6.8 1.2.8 2v7h6v-3a3 3 0 0 1 6 0v3h6v-7c0-.8.3-1.4.8-2H20v1h-5v-4zm-8 9H5v-2a1 1 0 0 1 2 0v2zm12 0h-2v-2a1 1 0 0 1 2 0v2zm-6-5h-2v-2a1 1 0 0 1 2 0v2z"/></symbol>
<symbol id="vocab" viewBox='0 0 14 16'><path d="M6.2 3.5C3.7 5.1 2.5 6.7 2.5 9.4H3c1.3 0 2.5.8 2.5 2.3 0 1.6-1 2.6-2.5 2.6-2 0-3-1.5-3-4.2 0-3.8 1.8-6.6 5-8.4l1.2 1.8zm7 0c-2.5 1.6-3.6 3.2-3.6 5.9h.4c1.3 0 2.5.8 2.5 2.3 0 1.6-1 2.6-2.5 2.6-1.9 0-3-1.5-3-4.2 0-3.8 1.8-6.6 5-8.4l1.2 1.8z"/></symbol>
<symbol id="language" viewBox='0 0 27 32'><path d="M12 19h-1l-2-1-1-1-3 3-2 2 1-1a52 52 0 0 0 5-8l-2 1H5v1H4l-1-1h1l2-1h2l1-1h1l-1 2-1 3h1l2 1 1 1zm-4-8l-1 1H5v-1h2l1-1v1zm12 2l2 4-3-1zM1 27l12-4V5L1 9v18zm22-5h2l-4-12h-1l-4 9 2 1v-2l4 1zM14 4l10 4V1zm5 24h3l-1 3v-1a14 14 0 0 1-7 2h-1l-7-2v-1l1 1 6 1 6-1 1-1zm8-19v19l-13-4a772 772 0 0 1-14 4V8l3-1V0l10 4 11-4h1v8z"/></symbol>
<symbol id="ball" viewBox='0 0 32 32'><path d="M11 15l5-4 5 4-2 6h-6zm5-15a16 16 0 1 1 0 32 16 16 0 0 1 0-32zm11 24c2-2 3-5 3-8l-2 2-4-4 1-6h2l-7-5 1 2-5 3-5-3 1-2-7 5h2l1 6-4 4-2-2c0 3 1 6 3 8v-2h6l3 6-2 1 4 1 4-1-2-1 3-6h6z"/></symbol>
<symbol id="history" viewBox='0 0 27 32'><path d="M27 16a14 14 0 0 1-24 9v-1l3-2v-1 1c2 2 5 3 8 3a9 9 0 0 0 0-18L7 9l3 3v1l-1 1H1l-1-1V5l1-1h1l2 2c3-2 6-4 10-4 7 0 13 6 13 14zm-11-5v8H9v-1l1-1h4v-7h1l1 1z"/></symbol>
<symbol id="health" viewBox='0 0 32 32'><path d="M28 8h-6V4l-2-2h-8l-2 2v4H4c-2 0-4 2-4 4v16c0 2 2 4 4 4h24c2 0 4-2 4-4V12c0-2-2-4-4-4zM12 4h8v4h-8V4zm12 18h-6v6h-4v-6H8v-4h6v-6h4v6h6v4z"/></symbol>
<symbol id="bug" viewBox='0 0 48 48'><path d="M40 16h-6l-3-4 3-3-3-3-4 4a12 12 0 00-6 0l-4-4-3 3 3 3-3 4H8v4h4v4H8v4h4v4H8v4h6a12 12 0 0020 0h6v-4h-4v-4h4v-4h-4v-2-2h4v-4zM28 32h-8v-4h8v4zm0-8h-8v-4h8v4z"/></symbol>
<symbol id="hex" viewBox='0 0 32 28'><path d="M1 15.6Q0 13.9 1 12L7 1.7Q8 0 10 0h12q2 0 3 1.7l6 10.4q1 1.8 0 3.5L25 26q-1 1.7-3 1.7H10q-2 0-3-1.7z"/></symbol>
<symbol id="sq" viewBox='0 0 32 32'><rect x="2" y="2" width="28" height="28" rx="4"/></symbol>
<symbol id="finger" viewBox='0 0 32 32'><path d="M26.5 30a21.5 21.5 0 002.8-16.7c-.3-1.1-1.3-2-2.6-2-.7 0-1.4.3-2 .8v-.2c0-1.4-1-2.5-2.5-2.5a2.6 2.6 0 00-2.6 2.5v-1.3c0-1.4-1.2-2.5-2.6-2.5a2.6 2.6 0 00-2.7 2.5V2.5c0-1.4-1.1-2.5-2.6-2.5a2.6 2.6 0 00-2.6 2.5v14.3c0 .7-.6 1.2-1.3 1.2h-.3l-3.7-1.5c-.4-.2-.8-.2-1.2-.2A2.6 2.6 0 000 18.7c0 1 .7 2 1.6 2.4 4.2 2 7.6 4.6 10 8.9h15z" fill="#010101"/></symbol>
<symbol id="safari-menu" viewBox='0 0 69 88'><path d="M34 57c2 0 4-2 4-4V9l2 3 5 6 2 1c2 0 4-2 4-3l-2-3L37 1l-3-1-2 1-13 12-1 3c0 1 1 3 3 3l3-1 5-6 2-3v44c0 2 1 4 3 4zM12 87h44c9 0 13-4 13-12V37c0-8-4-12-13-12H46v7h10c4 0 6 2 6 6v36c0 4-2 6-6 6H13c-4 0-6-2-6-6V38c0-4 2-6 6-6h10v-7H12C4 25 0 29 0 37v38c0 8 4 12 12 12z"/></symbol>
<symbol id="info" viewBox='0 0 24 24'><path d="M13 16h-2v-6h2v6zM12 5.7a1.3 1.3 0 110 2.6 1.3 1.3 0 010-2.6zM12 3c5.5 0 10 3.6 10 8 0 5-5.1 8-10 8-1.8 0-3.3-.4-4.3-.7-1 .6-1.6 1-4.3 1.8.6-1.3.7-2.7.6-4.2-.8-1-2-2.4-2-4.9 0-4.4 4.5-8 10-8zm0-2C5.7 1 0 5.2 0 11c0 2 .7 4 2 5.6.1 1.9-1 4.5-2 6.4 2.7-.5 6.4-1.5 8-2.5 1.4.3 2.8.5 4 .5 7.2 0 12-4.9 12-10 0-5.8-5.7-10-12-10z"/></symbol>
</svg>